<svg xmlns="http://www.w3.org/2000/svg" viewBox="0 0 1536 1024" role="img" aria-labelledby="title desc">
  <title id="title">Cloud systems engineering illustration</title>
  <desc id="desc">Servers connected to a code editor, cloud services, a monitoring dashboard, and a database.</desc>
  <defs>
    <linearGradient id="panel" x1="0" x2="1" y1="0" y2="1">
      <stop stop-color="#123f82"/>
      <stop offset="1" stop-color="#05275e"/>
    </linearGradient>
    <linearGradient id="panel-light" x1="0" x2="1">
      <stop stop-color="#dff4ff"/>
      <stop offset="1" stop-color="#8ccfff"/>
    </linearGradient>
    <linearGradient id="cloud" x1=".1" x2=".9" y1=".1" y2=".9">
      <stop stop-color="#eff8ff"/>
      <stop offset="1" stop-color="#9ebeff"/>
    </linearGradient>
    <linearGradient id="cloud-back" x1=".15" x2=".85" y1=".15" y2=".85">
      <stop stop-color="#85dcff"/>
      <stop offset="1" stop-color="#2185e0"/>
    </linearGradient>
    <linearGradient id="database" x1="0" x2="1">
      <stop stop-color="#97d5ff"/>
      <stop offset=".5" stop-color="#dff6ff"/>
      <stop offset="1" stop-color="#77bdf2"/>
    </linearGradient>
    <radialGradient id="backdrop">
      <stop stop-color="#e8f6ff" stop-opacity=".78"/>
      <stop offset=".6" stop-color="#b8ddfa" stop-opacity=".26"/>
      <stop offset="1" stop-color="#7ba6c8" stop-opacity="0"/>
    </radialGradient>
    <filter id="glow" x="-30%" y="-30%" width="160%" height="160%">
      <feGaussianBlur stdDeviation="10" result="blur"/>
      <feMerge><feMergeNode in="blur"/><feMergeNode in="SourceGraphic"/></feMerge>
    </filter>
    <filter id="soft-shadow" x="-20%" y="-20%" width="150%" height="160%">
      <feDropShadow dx="0" dy="9" stdDeviation="10" flood-color="#276aa4" flood-opacity=".22"/>
    </filter>
    <pattern id="grid" width="36" height="36" patternUnits="userSpaceOnUse">
      <path d="M36 0H0V36" fill="none" stroke="#88c9f3" stroke-opacity=".12"/>
    </pattern>
    <g id="server">
      <rect width="292" height="80" rx="9" fill="url(#panel-light)" stroke="#5aabeb"/>
      <rect x="0" y="64" width="292" height="16" fill="#0a3d86" opacity=".9"/>
      <circle cx="28" cy="34" r="9" fill="#2f82d8" stroke="#fff" stroke-width="2"/>
      <g fill="#1a5ea7">
        <circle cx="66" cy="23" r="2"/><circle cx="78" cy="23" r="2"/><circle cx="90" cy="23" r="2"/><circle cx="102" cy="23" r="2"/><circle cx="114" cy="23" r="2"/><circle cx="126" cy="23" r="2"/><circle cx="138" cy="23" r="2"/><circle cx="150" cy="23" r="2"/>
        <circle cx="66" cy="34" r="2"/><circle cx="78" cy="34" r="2"/><circle cx="90" cy="34" r="2"/><circle cx="102" cy="34" r="2"/><circle cx="114" cy="34" r="2"/><circle cx="126" cy="34" r="2"/><circle cx="138" cy="34" r="2"/><circle cx="150" cy="34" r="2"/>
        <circle cx="66" cy="45" r="2"/><circle cx="78" cy="45" r="2"/><circle cx="90" cy="45" r="2"/><circle cx="102" cy="45" r="2"/><circle cx="114" cy="45" r="2"/><circle cx="126" cy="45" r="2"/><circle cx="138" cy="45" r="2"/><circle cx="150" cy="45" r="2"/>
      </g>
      <path d="M197 25h67M197 36h57M197 47h48" stroke="#fff" stroke-linecap="round" stroke-width="4"/>
      <rect x="172" y="22" width="14" height="19" rx="6" fill="#fff"/>
    </g>
  </defs>

  <ellipse cx="770" cy="518" rx="715" ry="470" fill="url(#backdrop)"/>
  <path d="M120 712H1415M145 540H1390M240 370H1310M438 258H1000" stroke="#7cc5f4" stroke-opacity=".28" stroke-width="2"/>
  <path d="M165 657V430H385L455 348H580M432 726V546H616M1000 730V414H1265V602H1405M654 224H1040" fill="none" stroke="#7cc5f4" stroke-dasharray="5 12" stroke-opacity=".42" stroke-width="2"/>
  <path d="M249 327H544M249 327l-54 54M452 520l79-110M770 218c104-69 230-62 338 9M1096 754h244" fill="none" stroke="#9fd9fb" stroke-opacity=".45" stroke-width="2"/>
  <g fill="#dff5ff" stroke="#62baf0" stroke-width="3">
    <circle cx="165" cy="657" r="7"/><circle cx="432" cy="726" r="7"/><circle cx="455" cy="348" r="8"/>
    <circle cx="654" cy="224" r="8"/><circle cx="1040" cy="224" r="8"/><circle cx="1265" cy="602" r="7"/>
    <circle cx="1405" cy="602" r="9"/><circle cx="531" cy="410" r="6"/><circle cx="249" cy="327" r="6"/>
  </g>

  <g transform="translate(145 387)" filter="url(#soft-shadow)">
    <use href="#server"/>
    <use href="#server" y="96"/>
    <use href="#server" y="192"/>
    <use href="#server" y="288"/>
  </g>

  <g transform="translate(620 342)" filter="url(#soft-shadow)">
    <rect width="376" height="258" rx="10" fill="url(#panel)" stroke="#78c8ff" stroke-width="3"/>
    <path d="M0 45h376" stroke="#d9f4ff" stroke-width="3"/>
    <path d="M0 10a10 10 0 0 1 10-10h356a10 10 0 0 1 10 10v35H0Z" fill="#cbeaff"/>
    <circle cx="30" cy="23" r="8" fill="#eb5a3a" stroke="#963018"/>
    <circle cx="53" cy="23" r="8" fill="#ed8a32" stroke="#a94718"/>
    <circle cx="77" cy="23" r="8" fill="#2e80d1" stroke="#13518e"/>
    <path d="M49 72v161" stroke="#5aa4ed" stroke-opacity=".42"/>
    <g stroke-linecap="round" stroke-width="6">
      <path d="M66 73h47M66 91h64M66 109h184" stroke="#9bd8ff"/>
      <path d="M66 127h77M151 127h58M218 127h40" stroke="#dff5ff"/>
      <path d="M66 145h108M66 163h78M66 181h68" stroke="#9bd8ff"/>
      <path d="M66 205h61M137 205h8" stroke="#ffe28a"/>
      <path d="M66 228h49M126 228h16M151 228h20" stroke="#6ab7fb"/>
      <path d="M218 127h40" stroke="#ffe28a"/>
    </g>
    <g stroke="#73bfff" stroke-linecap="round" stroke-width="5">
      <path d="M24 74h17M24 91h13M24 109h15M24 127h12M24 145h14M24 163h13M24 181h16M24 205h13M24 228h18"/>
    </g>
    <path d="m266 183-30-19 30-20M308 141l-20 51M322 144l30 20-30 19" fill="none" stroke="#ffe68b" stroke-linecap="round" stroke-linejoin="round" stroke-width="6"/>
  </g>

  <g transform="translate(991 166)" filter="url(#soft-shadow)">
    <circle cx="152" cy="68" r="68" fill="url(#cloud-back)" stroke="#5cbcf3"/>
    <circle cx="61" cy="123" r="72" fill="url(#cloud-back)" stroke="#5cbcf3"/>
    <circle cx="236" cy="100" r="65" fill="url(#cloud)" stroke="#7cc7f3"/>
    <path d="M77 195c-29 0-53-23-53-52 0-28 22-51 50-52 7-38 41-67 81-67 25 0 48 11 63 29 15-10 32-15 51-15 46 0 84 37 84 83v2c26 7 45 31 45 59 0 34-27 61-61 61H84c-33 0-60-21-60-48Z" fill="url(#cloud)" stroke="#fff" stroke-width="9"/>
  </g>

  <g transform="translate(898 572)" filter="url(#soft-shadow)">
    <rect width="346" height="218" rx="16" fill="#f2fbff" stroke="#fff" stroke-width="6"/>
    <rect x="16" y="17" width="314" height="174" rx="6" fill="url(#panel)" stroke="#4c9dde"/>
    <g stroke="#84caff" stroke-linecap="round" stroke-width="5">
      <path d="M40 40h18M40 56h16M40 72h20M40 105h12M40 123h14M40 139h11"/>
      <path d="M84 105h182M84 124h105M84 141h74M84 159h73M180 159h39M238 159h47"/>
    </g>
    <path d="M73 83c16-5 18-18 31-16 15 3 18 21 34 18 12-2 13-16 26-17 13-1 15 12 26 12 13 1 17-14 29-13 10 1 13 11 24 11 16-1 20-35 37-34h24" fill="none" stroke="#75e8c4" stroke-linecap="round" stroke-linejoin="round" stroke-width="6"/>
    <path d="M113 217v17M230 217v17M87 234h172" stroke="#d5f1ff" stroke-linecap="round" stroke-width="10"/>
    <circle cx="47" cy="193" r="28" fill="#dff5ff" stroke="#fff" stroke-width="7"/>
    <circle cx="47" cy="193" r="20" fill="#2e76c5" stroke="#0c4b92" stroke-width="3"/>
    <path d="m27 215-23 14" stroke="#2f75bd" stroke-linecap="round" stroke-width="10"/>
  </g>

  <g transform="translate(1170 686)" filter="url(#soft-shadow)">
    <path d="M0 16v91c0 12 29 21 63 21s63-9 63-21V16" fill="url(#database)" stroke="#5aa7df" stroke-width="3"/>
    <ellipse cx="63" cy="16" rx="63" ry="16" fill="#dff5ff" stroke="#5aa7df" stroke-width="3"/>
    <path d="M0 53c0 12 29 21 63 21s63-9 63-21M0 91c0 12 29 21 63 21s63-9 63-21" fill="none" stroke="#1d69b4" stroke-width="4"/>
  </g>
</svg>
