<svg
  width="375.16055mm"
  height="91.364372mm"
  class="c-nav__logo"
  viewBox="0 0 375.16055 91.364374"
  xmlns="http://www.w3.org/2000/svg">
  <g transform="translate(59.959715,-72.105891)">
    <g>
      <g>
        <path
          style="fill:none;fill-opacity:1;stroke:#1e79e3;stroke-width:10;stroke-dasharray:none;stroke-opacity:1"
          d="m -39.817342,135.54145 c -0.684123,1.18493 -38.12962,22.8041 -39.497867,22.8041 -1.368246,0 -38.813741,-21.61917 -39.497871,-22.8041 -0.68412,-1.18494 -0.68412,-44.423275 1e-5,-45.608211 0.68412,-1.184936 38.129616,-22.804104 39.497862,-22.804104 1.368246,0 38.813743,21.619168 39.497866,22.804104 0.684123,1.184936 0.684123,44.423271 0,45.608211 z"
          transform="matrix(0.90266355,0,0,0.90266355,52.264984,16.024185)" />
        <path
          style="fill:#1e79e3;fill-opacity:1;stroke:#1e79e3;stroke-width:10;stroke-dasharray:none;stroke-opacity:1"
          d="m -39.817342,135.54145 c -0.684123,1.18493 -38.12962,22.8041 -39.497867,22.8041 -1.368246,0 -38.813741,-21.61917 -39.497871,-22.8041 -0.68412,-1.18494 -0.68412,-44.423275 1e-5,-45.608211 0.68412,-1.184936 38.129616,-22.804104 39.497862,-22.804104 1.368246,0 38.813743,21.619168 39.497866,22.804104 0.684123,1.184936 0.684123,44.423271 0,45.608211 z"
          transform="matrix(0.42945016,0,0,0.42945016,14.731966,69.373005)" />
      </g>
      <g>
        <text
          x="117.83594"
          y="295.6236"
          transform="matrix(0.55742976,0,0,0.55742976,-20.244782,-37.524708)"
          style="font-weight:bold;font-size:96px;font-family:Montserrat;fill:#052143">JOHNTEK</text>
        <text
          x="161.19922"
          y="608.97344"
          transform="matrix(0.26458333,0,0,0.26458333,0.7482567,-2.9930268)"
          style="font-weight:500;font-size:93.3333px;font-family:Montserrat;letter-spacing:27px;fill:#052143">CONSULTING</text>
      </g>
    </g>
  </g>
</svg>
